<svg width="8" height="17" viewBox="0 0 8 17" fill="none" xmlns="http://www.w3.org/2000/svg">
<path fill-rule="evenodd" clip-rule="evenodd" d="M1.67198 8.22213V16.1118C1.67198 16.1659 1.6935 16.2179 1.7318 16.2562C1.7701 16.2945 1.82205 16.316 1.87622 16.316H4.80693C4.8611 16.316 4.91305 16.2945 4.95135 16.2562C4.98966 16.2179 5.01118 16.1659 5.01118 16.1118V8.09388H7.1344C7.18652 8.09518 7.23708 8.07603 7.27525 8.04052C7.31342 8.00501 7.33617 7.95597 7.33864 7.90389L7.54289 5.49092C7.54554 5.46255 7.54223 5.43393 7.53316 5.40691C7.52409 5.3799 7.50946 5.35508 7.49022 5.33405C7.47098 5.31302 7.44756 5.29626 7.42145 5.28483C7.39535 5.27339 7.36714 5.26755 7.33864 5.26768H4.99693V3.55295C4.99817 3.36059 5.07514 3.17647 5.21116 3.04044C5.34718 2.90442 5.53131 2.82746 5.72367 2.82621H7.37189C7.42606 2.82621 7.47802 2.80469 7.51632 2.76639C7.55462 2.72809 7.57614 2.67613 7.57614 2.62196V0.204251C7.57614 0.150081 7.55462 0.0981301 7.51632 0.0598264C7.47802 0.0215226 7.42606 3.83713e-06 7.37189 3.83713e-06H4.61693C4.23042 -0.000620579 3.84758 0.0749693 3.49031 0.222449C3.13304 0.369929 2.80835 0.586404 2.53482 0.859489C2.2613 1.13257 2.0443 1.45691 1.89624 1.81394C1.74818 2.17098 1.67198 2.5537 1.67198 2.94021V5.26768H0.208998C0.154382 5.26766 0.101928 5.28903 0.0628676 5.3272C0.0238068 5.36537 0.00124128 5.41732 0 5.47192V7.88964C0.00124128 7.94424 0.0238068 7.99619 0.0628676 8.03436C0.101928 8.07253 0.154382 8.0939 0.208998 8.09388H1.67198V8.22213Z" fill="#949494"/>
</svg>
