<svg width="19" height="19" viewBox="0 0 19 19" fill="none" xmlns="http://www.w3.org/2000/svg">
<path d="M14.4858 3.49821C14.2644 3.49821 14.0479 3.56394 13.8639 3.68706C13.6799 3.81019 13.5365 3.98517 13.452 4.18983C13.3676 4.39449 13.3457 4.61963 13.3893 4.83672C13.4329 5.0538 13.5399 5.25306 13.6969 5.40926C13.8538 5.56545 14.0536 5.67155 14.2709 5.7141C14.4881 5.75665 14.7132 5.73374 14.9174 5.64828C15.1217 5.56282 15.296 5.41866 15.4182 5.23405C15.5405 5.04943 15.6052 4.83269 15.6041 4.61128C15.6041 4.46466 15.5752 4.31949 15.5189 4.1841C15.4626 4.04871 15.3802 3.92577 15.2763 3.82234C15.1723 3.71891 15.049 3.63703 14.9133 3.58141C14.7777 3.52579 14.6324 3.49751 14.4858 3.49821ZM9.52467 4.9293C8.59692 4.9293 7.69001 5.2044 6.91861 5.71983C6.14722 6.23526 5.54599 6.96786 5.19096 7.82499C4.83592 8.68212 4.74303 9.62528 4.92402 10.5352C5.10502 11.4451 5.55177 12.2809 6.20779 12.937C6.86381 13.593 7.69962 14.0397 8.60955 14.2207C9.51947 14.4017 10.4626 14.3088 11.3198 13.9538C12.1769 13.5988 12.9095 12.9975 13.4249 12.2261C13.9403 11.4547 14.2155 10.5478 14.2155 9.62008C14.2141 8.37643 13.7194 7.18413 12.84 6.30474C11.9606 5.42535 10.7683 4.9307 9.52467 4.9293ZM9.52467 12.6201C8.93006 12.6201 8.34881 12.4437 7.85448 12.1132C7.36015 11.7827 6.97496 11.3131 6.74765 10.7636C6.52034 10.2142 6.46115 9.60963 6.57753 9.02652C6.69392 8.44341 6.98068 7.90793 7.4015 7.48785C7.82233 7.06776 8.35831 6.78196 8.94163 6.6666C9.52494 6.55124 10.1294 6.61151 10.6784 6.83978C11.2275 7.06806 11.6965 7.45408 12.0261 7.94899C12.3556 8.4439 12.531 9.02546 12.53 9.62008C12.5272 10.4158 12.2095 11.178 11.6463 11.7402C11.0832 12.3023 10.3204 12.6187 9.52467 12.6201ZM18.9857 5.72964C18.9871 4.97772 18.8402 4.23289 18.5534 3.5378C18.2667 2.84271 17.8456 2.211 17.3144 1.67881C16.7832 1.14663 16.1523 0.72442 15.4577 0.436348C14.7632 0.148277 14.0186 -1.2917e-06 13.2667 0L5.71905 0C4.20226 0 2.7476 0.60254 1.67507 1.67507C0.602544 2.7476 0 4.20226 0 5.71904V13.2508C0 14.7676 0.602544 16.2222 1.67507 17.2948C2.7476 18.3673 4.20226 18.9698 5.71905 18.9698H13.2667C14.7835 18.9698 16.2381 18.3673 17.3107 17.2948C18.3832 16.2222 18.9857 14.7676 18.9857 13.2508V5.72964ZM17.1942 13.2508C17.1942 14.2924 16.7804 15.2914 16.0439 16.028C15.3073 16.7645 14.3083 17.1783 13.2667 17.1783H5.71905C5.20328 17.1783 4.69255 17.0767 4.21604 16.8794C3.73953 16.682 3.30656 16.3927 2.94186 16.028C2.57715 15.6633 2.28786 15.2303 2.09048 14.7538C1.8931 14.2773 1.79151 13.7666 1.79151 13.2508V5.71904C1.79151 4.6774 2.2053 3.67841 2.94186 2.94186C3.67841 2.2053 4.6774 1.79151 5.71905 1.79151H13.2667C14.3083 1.79151 15.3073 2.2053 16.0439 2.94186C16.7804 3.67841 17.1942 4.6774 17.1942 5.71904V13.2508Z" fill="#949494"/>
</svg>
