<svg width="29" height="28" viewBox="0 0 29 28" fill="none" xmlns="http://www.w3.org/2000/svg">
<path fill-rule="evenodd" clip-rule="evenodd" d="M14.5602 0C12.0903 0.000400065 9.6661 0.666187 7.54248 1.92737C5.41886 3.18856 3.67422 4.99857 2.49196 7.16712C1.30971 9.33568 0.733496 11.7827 0.823904 14.2509C0.914312 16.7192 1.668 19.1175 3.00574 21.1937L0.923717 25.8346C0.83941 26.0167 0.802468 26.2172 0.816318 26.4175C0.830168 26.6177 0.894361 26.8112 1.00294 26.98C1.11153 27.1489 1.26098 27.2875 1.43745 27.3832C1.61392 27.4788 1.81169 27.5284 2.01241 27.5272C2.11779 27.5427 2.22489 27.5427 2.33027 27.5272L8.08365 25.9379C9.92685 26.8987 11.9639 27.4291 14.0417 27.4891C16.1194 27.5492 18.1837 27.1373 20.0793 26.2844C21.9749 25.4315 23.6525 24.16 24.9857 22.5653C26.319 20.9706 27.2733 19.0943 27.7769 17.0776C28.2804 15.0609 28.3201 12.9563 27.893 10.9221C27.4658 8.8878 26.5829 6.97689 25.3107 5.33306C24.0386 3.68923 22.4102 2.35528 20.5481 1.43156C18.686 0.507828 16.6387 0.0183706 14.5602 0V0ZM14.5602 25.0876C12.5528 25.0881 10.5812 24.5561 8.84653 23.5459C8.66401 23.4367 8.45528 23.379 8.24258 23.379C8.14707 23.3902 8.0535 23.4143 7.96445 23.4506L4.16595 24.4518L5.47715 21.5752C5.56301 21.3816 5.59646 21.1688 5.57415 20.9582C5.55183 20.7476 5.47453 20.5465 5.35 20.3752C3.86074 18.3091 3.10982 15.802 3.21807 13.2574C3.32633 10.7128 4.28745 8.27862 5.9468 6.34645C7.60616 4.41428 9.86727 3.0965 12.3663 2.60513C14.8654 2.11376 17.4571 2.47738 19.7245 3.63747C21.9918 4.79756 23.803 6.68668 24.8666 9.00087C25.9302 11.3151 26.1844 13.9198 25.5882 16.3959C24.9921 18.8721 23.5802 21.0757 21.5799 22.6522C19.5796 24.2288 17.1071 25.0866 14.5602 25.0876V25.0876Z" fill="#FDFDFD"/>
<path fill-rule="evenodd" clip-rule="evenodd" d="M19.8842 15.8056C19.6069 15.5826 19.2824 15.4258 18.9353 15.3473C18.5882 15.2688 18.2279 15.2706 17.8816 15.3526C17.3571 15.5672 17.0313 16.3777 16.6896 16.791C16.619 16.8901 16.5141 16.9596 16.3952 16.986C16.2764 17.0124 16.1519 16.9939 16.0459 16.934C14.143 16.1874 12.5473 14.8212 11.5163 13.056C11.4668 13.0001 11.4292 12.9346 11.4059 12.8637C11.3825 12.7927 11.3739 12.7177 11.3806 12.6433C11.3873 12.5689 11.4092 12.4966 11.4448 12.4309C11.4804 12.3652 11.5291 12.3075 11.5879 12.2614C11.9591 11.8889 12.2321 11.4302 12.3825 10.9263C12.4114 10.3718 12.2819 9.82058 12.009 9.337C11.7999 8.64766 11.3939 8.03446 10.8409 7.57285C10.5582 7.44198 10.2433 7.39706 9.93529 7.44368C9.62729 7.49031 9.33978 7.62641 9.1085 7.83508C8.70912 8.17908 8.39189 8.60818 8.18012 9.09086C7.96834 9.57355 7.8674 10.0975 7.88472 10.6244C7.87831 10.9283 7.90495 11.2321 7.96418 11.5303C8.15598 12.232 8.45055 12.9015 8.83832 13.5169C9.10899 13.9839 9.40615 14.4349 9.72834 14.8679C10.7666 16.2978 12.0729 17.5123 13.5745 18.4439C14.3241 18.9129 15.1237 19.2968 15.9585 19.5882C16.835 19.9817 17.801 20.1327 18.7557 20.0252C19.2995 19.941 19.8146 19.7254 20.2563 19.3973C20.698 19.0691 21.0531 18.6382 21.2907 18.1419C21.422 17.8394 21.4607 17.5048 21.402 17.1803C21.2748 16.5208 20.3768 16.1234 19.8842 15.8056Z" fill="#FDFDFD"/>
</svg>
