<svg height="480pt" viewBox="0 0 480 480.00009" width="480pt" xmlns="http://www.w3.org/2000/svg"><path d="m216 200v-192c0-4.417969-3.582031-8-8-8h-128c-4.417969 0-8 3.582031-8 8v192c.050781 30.476562 19.269531 57.628906 48 67.800781v167.917969l-44.441406 29.601562c-2.953125 1.949219-4.277344 5.605469-3.253906 8.996094 1.023437 3.386719 4.15625 5.699219 7.695312 5.683594h128c3.527344 0 6.636719-2.304688 7.660156-5.679688 1.019532-3.375-.285156-7.019531-3.21875-8.976562l-44.441406-29.625v-167.917969c28.730469-10.171875 47.949219-37.324219 48-67.800781zm-128-184h112v16.273438l-.457031-.273438-1.304688-.753906c-.542969-.308594-1.09375-.613282-1.664062-.925782-.40625-.214843-.796875-.441406-1.238281-.65625-.582032-.296874-1.183594-.59375-1.800782-.878906-.4375-.210937-.871094-.417968-1.328125-.617187-.640625-.273438-1.304687-.535157-1.976562-.800781-.476563-.191407-.949219-.375-1.453125-.550782-.707032-.25-1.464844-.472656-2.21875-.695312-.527344-.152344-1.03125-.3125-1.597656-.457032-.800782-.207031-1.695313-.375-2.570313-.550781-.558594-.113281-1.085937-.242187-1.671875-.335937-1-.167969-2.085938-.28125-3.199219-.402344-.535156-.054688-1.023437-.136719-1.597656-.183594-1.609375-.113281-3.378906-.191406-5.265625-.191406-10.964844-.222656-21.726562 2.972656-30.792969 9.144531-6.578125 4.664063-14.488281 7.070313-22.550781 6.855469-8.0625.210938-15.976562-2.195312-22.558594-6.855469-1.832031-1.105469-3.84375-2.265625-6.027344-3.402343-.261718-.132813-.453124-.269532-.726562-.40625zm0 184v-152.257812l.519531.304687 1.207031.6875c.546876.320313 1.105469.625 1.671876.9375.417968.222656.800781.449219 1.257812.664063.566406.296874 1.160156.574218 1.761719.863281.445312.207031.902343.425781 1.375.632812.613281.273438 1.261719.519531 1.917969.800781.496093.191407.984374.382813 1.503906.566407.6875.242187 1.425781.457031 2.160156.671875.546875.160156 1.066406.328125 1.601562.472656.800782.207031 1.664063.375 2.519532.542969.574218.121093 1.113281.25 1.710937.34375 1 .167969 2.082031.28125 3.199219.402343.539062.054688 1.027344.136719 1.601562.183594 1.671876.128906 3.441407.207032 5.328126.207032 10.960937.226562 21.722656-2.96875 30.785156-9.144532 6.570312-4.664062 14.476562-7.078125 22.535156-6.878906 8.066406-.210938 15.980469 2.195312 22.566406 6.855469 1.839844 1.105469 3.855469 2.273437 6.042969 3.402343.261719.132813.460937.277344.734375.414063v149.328125c0 30.929688-25.070312 56-56 56s-56-25.070312-56-56zm18.398438 264 24-16h27.203124l24 16zm45.601562-32h-16v-160.472656c5.316406.628906 10.683594.628906 16 0zm0 0"/><path d="m368 296c-4.417969 0-8 3.582031-8 8v32c0 4.417969 3.582031 8 8 8s8-3.582031 8-8v-32c0-4.417969-3.582031-8-8-8zm0 0"/><path d="m288 182.617188-39.535156 110.695312c-.308594.863281-.464844 1.773438-.464844 2.6875v176c0 4.417969 3.582031 8 8 8h144c4.417969 0 8-3.582031 8-8v-176c0-.914062-.15625-1.824219-.464844-2.6875l-39.535156-110.695312v-86.617188c4.417969 0 8-3.582031 8-8v-32c0-4.417969-3.582031-8-8-8v-40c0-4.417969-3.582031-8-8-8h-64c-4.417969 0-8 3.582031-8 8v40c-4.417969 0-8 3.582031-8 8v32c0 4.417969 3.582031 8 8 8zm104 281.382812h-128v-166.617188l11.425781-32 49.328125 21.921876c1.019532.457031 2.125.695312 3.246094.695312h.238281c.082031 0 .226563 0 .335938-.039062 1.160156-.066407 2.292969-.382813 3.3125-.9375l47.066406-26.144532 13.046875 36.503906zm-18.503906-218.398438-45.894532 25.46875-46.777343-20.796874 22.710937-63.59375c.304688-.859376.460938-1.765626.464844-2.679688v-48h48v48c0 .914062.15625 1.824219.464844 2.6875zm-77.496094-181.601562h64v16h-64zm8-48h48v32h-48zm48 80v24h-48v-24zm0 0"/><path d="m328 208c-13.253906 0-24 10.746094-24 24s10.746094 24 24 24 24-10.746094 24-24-10.746094-24-24-24zm0 32c-4.417969 0-8-3.582031-8-8s3.582031-8 8-8 8 3.582031 8 8-3.582031 8-8 8zm0 0"/><path d="m368 360h-80c-4.417969 0-8 3.582031-8 8v64c0 4.417969 3.582031 8 8 8h80c4.417969 0 8-3.582031 8-8v-64c0-4.417969-3.582031-8-8-8zm-8 64h-64v-48h64zm0 0"/><path d="m184 200v-32c0-4.417969-3.582031-8-8-8s-8 3.582031-8 8v32c0 13.253906-10.746094 24-24 24s-24-10.746094-24-24c0-4.417969-3.582031-8-8-8s-8 3.582031-8 8c0 22.089844 17.910156 40 40 40s40-17.910156 40-40zm0 0"/><path d="m176 144c4.417969 0 8-3.582031 8-8v-72c0-4.417969-3.582031-8-8-8s-8 3.582031-8 8v72c0 4.417969 3.582031 8 8 8zm0 0"/><path d="m472 128c-13.253906 0-24-10.746094-24-24 0-4.417969-3.582031-8-8-8s-8 3.582031-8 8c0 13.253906-10.746094 24-24 24-4.417969 0-8 3.582031-8 8s3.582031 8 8 8c13.253906 0 24 10.746094 24 24 0 4.417969 3.582031 8 8 8s8-3.582031 8-8c0-13.253906 10.746094-24 24-24 4.417969 0 8-3.582031 8-8s-3.582031-8-8-8zm-32 16.246094c-2.332031-3.136719-5.109375-5.914063-8.246094-8.246094 3.136719-2.332031 5.914063-5.109375 8.246094-8.246094 2.332031 3.136719 5.109375 5.914063 8.246094 8.246094-3.136719 2.332031-5.914063 5.109375-8.246094 8.246094zm0 0"/><path d="m48 320c0-4.417969-3.582031-8-8-8s-8 3.582031-8 8c0 13.253906-10.746094 24-24 24-4.417969 0-8 3.582031-8 8s3.582031 8 8 8c13.253906 0 24 10.746094 24 24 0 4.417969 3.582031 8 8 8s8-3.582031 8-8c0-13.253906 10.746094-24 24-24 4.417969 0 8-3.582031 8-8s-3.582031-8-8-8c-13.253906 0-24-10.746094-24-24zm-8 40.246094c-2.332031-3.136719-5.109375-5.914063-8.246094-8.246094 3.136719-2.332031 5.914063-5.109375 8.246094-8.246094 2.332031 3.136719 5.109375 5.914063 8.246094 8.246094-3.136719 2.332031-5.914063 5.109375-8.246094 8.246094zm0 0"/></svg>