<svg id="Capa_1" enable-background="new 0 0 512 512" height="512" viewBox="0 0 512 512" width="512" xmlns="http://www.w3.org/2000/svg"><g><path d="m316.013 457.283h-114.785c-12.182 0-24.324-2.471-35.507-7.172 2.446-6.898 3.79-14.313 3.79-22.038 0-34.05-25.872-62.164-58.989-65.735 1.315-21.812 10.509-42.296 26.021-57.808 4.62-4.62 9.742-8.733 15.225-12.228 3.368-2.147 5.505-5.814 5.717-9.81.214-4.041-1.55-7.964-4.72-10.494-19.108-15.249-31.07-36.97-33.681-61.162-2.864-26.54 6.186-52.951 24.829-72.461 18.635-19.502 44.595-29.735 71.221-28.084 9.034.562 17.884 2.456 26.306 5.629 3.875 1.461 8.202-.497 9.663-4.373 1.461-3.877-.497-8.203-4.373-9.663-9.821-3.701-20.139-5.91-30.665-6.563-31.055-1.932-61.3 9.986-82.997 32.692-11.882 12.435-20.407 27.289-25.149 43.262h-52.682c-6.893 0-12.5 5.607-12.5 12.5v6.922c0 37.771 30.729 68.5 68.5 68.5h9.698c5.459 8.263 12.119 15.795 19.865 22.379-5.309 3.639-10.297 7.783-14.863 12.349-18.35 18.35-29.141 42.66-30.452 68.512-32.749 3.919-58.227 31.85-58.227 65.638 0 9.937 2.152 19.494 6.397 28.405 1.78 3.739 6.255 5.328 9.996 3.546 3.74-1.781 5.327-6.257 3.546-9.996-3.277-6.881-4.939-14.268-4.939-21.955 0-28.191 22.936-51.126 51.127-51.126s51.126 22.935 51.126 51.126-22.935 51.126-51.126 51.126c-9.481 0-18.735-2.612-26.76-7.553-3.527-2.171-8.146-1.073-10.319 2.455-2.171 3.527-1.073 8.147 2.455 10.319 10.392 6.397 22.365 9.779 34.625 9.779 23.391 0 43.969-12.219 55.728-30.599 13.237 5.69 27.655 8.682 42.115 8.682h114.785c4.142 0 7.5-3.358 7.5-7.5s-3.359-7.501-7.501-7.501zm-204.776-213.088c-29.5 0-53.5-24-53.5-53.5v-4.422h46.891c-1.231 8.59-1.407 17.373-.457 26.172 1.201 11.129 4.102 21.807 8.538 31.75z"/><path d="m209.302 365.679v8.63c0 20.185 16.422 36.607 36.607 36.607h60.02c37.771 0 68.5-30.729 68.5-68.5v-2.688c0-5.876-4.781-10.658-10.658-10.658h-117.861c-20.186.002-36.608 16.424-36.608 36.609zm96.628 30.238h-60.02c-11.915 0-21.607-9.693-21.607-21.607v-8.63c0-11.915 9.693-21.607 21.607-21.607h113.495c-.876 28.737-24.528 51.844-53.475 51.844z"/><path d="m73.079 332.736c0-20.148-16.392-36.539-36.539-36.539-20.149 0-36.54 16.391-36.54 36.539s16.391 36.54 36.539 36.54 36.54-16.392 36.54-36.54zm-36.54 21.54c-11.876 0-21.539-9.663-21.539-21.54 0-11.876 9.663-21.539 21.539-21.539 11.877 0 21.54 9.663 21.54 21.539 0 11.877-9.663 21.54-21.54 21.54z"/><path d="m463.136 74.293c-26.943 0-48.864 21.92-48.864 48.864 0 26.943 21.92 48.863 48.864 48.863 26.943 0 48.864-21.92 48.864-48.863 0-26.944-21.92-48.864-48.864-48.864zm0 82.727c-18.672 0-33.864-15.191-33.864-33.863s15.191-33.864 33.864-33.864c18.672 0 33.864 15.191 33.864 33.864 0 18.672-15.191 33.863-33.864 33.863z"/><path d="m382.82 90.879c20.147 0 36.539-16.392 36.539-36.539 0-20.148-16.392-36.539-36.539-36.539-20.148 0-36.54 16.392-36.54 36.539s16.392 36.539 36.54 36.539zm0-58.079c11.876 0 21.539 9.663 21.539 21.539 0 11.877-9.663 21.539-21.539 21.539-11.877 0-21.54-9.663-21.54-21.539s9.663-21.539 21.54-21.539z"/><path d="m159.942 185.925c0 4.142 3.358 7.5 7.5 7.5s7.5-3.358 7.5-7.5c0-4.142-3.358-7.5-7.5-7.5s-7.5 3.358-7.5 7.5z"/><path d="m473.37 272.285c2.675-7.583 4.03-15.539 4.03-23.674 0-19.667-7.836-37.979-22.066-51.563-14.222-13.578-32.9-20.55-52.599-19.638-36.367 1.687-66.161 31.493-67.828 67.857-.282 6.153.206 12.207 1.424 18.056h-41.393c13.137-18.009 20.318-39.956 20.318-62.358 0-31.508-13.894-61.158-38.119-81.348-3.182-2.652-7.91-2.223-10.563.96-2.652 3.182-2.223 7.911.96 10.563 20.795 17.332 32.722 42.783 32.722 69.826 0 20.698-7.141 40.94-20.108 56.998-3.06 3.789-3.657 8.87-1.56 13.259 2.093 4.38 6.412 7.102 11.271 7.102h51.432c3.26 7.094 7.699 13.684 13.269 19.514 13.585 14.222 31.896 22.054 51.56 22.054.15 0 .299 0 .449-.001 6.03 14.14 19.174 23.69 34.242 25.254 2.324 8.674 3.314 17.639 2.908 26.728-.997 22.335-10.272 43.361-26.116 59.205-16.9 16.9-39.371 26.207-63.274 26.207h-5.629c-4.142 0-7.5 3.358-7.5 7.5s3.358 7.5 7.5 7.5h5.629c27.91 0 54.147-10.868 73.88-30.601 18.5-18.5 29.33-43.056 30.495-69.143.433-9.698-.488-19.282-2.718-28.6 17.22-4.653 30.281-20.174 31.135-38.546.59-12.698-4.404-24.664-13.751-33.111zm-1.233 32.412c-.639 13.737-11.9 25.002-25.638 25.646-11.747.542-22.436-6.455-26.574-17.437-1.829-4.855-6.493-8.049-11.685-8.049-.131 0-.263.002-.395.006-.573.018-1.149.027-1.726.027-15.527 0-29.986-6.185-40.713-17.415-10.718-11.22-16.228-25.967-15.515-41.523 1.315-28.702 24.832-52.229 53.539-53.56 15.567-.726 30.318 4.784 41.546 15.504 11.236 10.727 17.424 25.186 17.424 40.714 0 6.893-1.227 13.612-3.647 19.971-1.905 5.005-.432 10.654 3.666 14.058 6.574 5.459 10.116 13.499 9.718 22.058z"/></g></svg>