<?xml version="1.0" encoding="iso-8859-1"?>
<!-- Generator: Adobe Illustrator 19.0.0, SVG Export Plug-In . SVG Version: 6.00 Build 0)  -->
<svg version="1.1" id="Capa_1" xmlns="http://www.w3.org/2000/svg" xmlns:xlink="http://www.w3.org/1999/xlink" x="0px" y="0px"
	 viewBox="0 0 512 512" style="enable-background:new 0 0 512 512;" xml:space="preserve">
<g>
	<g>
		<path d="M504.499,304.5h-106v-15.755c14.672-2.99,26.255-14.573,29.245-29.245h31.755c4.142,0,7.5-3.357,7.5-7.5
			s-3.358-7.5-7.5-7.5h-7.5v-49.79c0-0.029,0-32.709,0-32.709c0-12.406-10.093-22.5-22.5-22.5h-107c-12.407,0-22.5,10.094-22.5,22.5
			v32.681c0,0.029,0,49.819,0,49.819h-7.5c-4.142,0-7.5,3.357-7.5,7.5s3.358,7.5,7.5,7.5h31.755
			c2.99,14.672,14.573,26.255,29.245,29.245V304.5h-106c-4.142,0-7.5,3.357-7.5,7.5v192.5c0,4.143,3.358,7.5,7.5,7.5
			c4.142,0,7.5-3.357,7.5-7.5v-8.247c6.866-1.378,13.143-4.629,18.2-9.411c6.85,6.478,15.937,10.158,25.7,10.158
			s18.85-3.68,25.7-10.158c6.85,6.478,15.936,10.158,25.7,10.158c9.763,0,18.85-3.68,25.7-10.158
			c6.85,6.478,15.936,10.158,25.7,10.158c9.763,0,18.85-3.68,25.7-10.158c6.851,6.478,15.937,10.158,25.7,10.158
			c9.764,0,18.85-3.68,25.7-10.158c5.057,4.782,11.334,8.033,18.2,9.411v8.247c0,4.143,3.358,7.5,7.5,7.5c4.142,0,7.5-3.357,7.5-7.5
			V312C511.999,307.857,508.641,304.5,504.499,304.5z M314.999,162c0-4.136,3.364-7.5,7.5-7.5h107c4.136,0,7.5,3.364,7.5,7.5v30.267
			c-3.766,4.559-9.355,7.233-15.333,7.233c-6.68,0-12.88-3.33-16.586-8.907c-1.39-2.092-3.735-3.35-6.247-3.35
			s-4.856,1.257-6.247,3.349c-3.707,5.578-9.907,8.908-16.587,8.908s-12.88-3.33-16.587-8.908c-1.39-2.092-3.735-3.349-6.247-3.349
			s-4.857,1.258-6.247,3.35c-3.706,5.577-9.907,8.907-16.586,8.907c-5.978,0-11.567-2.674-15.333-7.233V162z M314.999,244.5v-33.559
			c4.702,2.301,9.924,3.559,15.333,3.559c8.507,0,16.569-3.077,22.833-8.503c6.264,5.427,14.326,8.503,22.833,8.503
			s16.569-3.076,22.833-8.503c6.264,5.426,14.326,8.503,22.833,8.503c5.409,0,10.632-1.258,15.333-3.559V244.5H314.999z
			 M339.789,259.5h72.42c-3.096,8.729-11.432,15-21.21,15h-30C351.222,274.5,342.885,268.229,339.789,259.5z M383.499,289.5v15h-15
			v-15H383.499z M496.999,480.724c-4.846-1.7-9.012-5.035-11.779-9.619c-1.358-2.249-3.794-3.624-6.421-3.624
			c-2.627,0-5.063,1.375-6.421,3.624C468.26,477.927,461.053,482,453.099,482c-7.954,0-15.161-4.073-19.279-10.896
			c-1.358-2.249-3.793-3.624-6.421-3.624s-5.063,1.375-6.421,3.624C416.86,477.927,409.652,482,401.699,482
			s-15.161-4.073-19.279-10.896c-1.357-2.249-3.793-3.624-6.421-3.624c-2.627,0-5.063,1.375-6.421,3.624
			C365.46,477.927,358.253,482,350.299,482c-7.954,0-15.161-4.073-19.279-10.896c-1.357-2.249-3.793-3.624-6.421-3.624
			c-2.627,0-5.063,1.375-6.421,3.624C314.06,477.927,306.853,482,298.899,482c-7.954,0-15.161-4.073-19.279-10.896
			c-1.358-2.249-3.794-3.624-6.421-3.624s-5.063,1.375-6.421,3.624c-2.767,4.584-6.933,7.919-11.779,9.62V349.5h34.965
			l27.928,55.854c1.271,2.541,3.867,4.146,6.708,4.146s5.438-1.605,6.708-4.146l27.926-55.854h33.529l27.928,55.854
			c1.271,2.541,3.867,4.146,6.708,4.146s5.438-1.605,6.708-4.146l27.926-55.854h34.966V480.724z M306.735,349.5h35.729
			L324.6,385.229L306.735,349.5z M409.534,349.5h35.73L427.4,385.229L409.534,349.5z M496.999,334.5h-242v-15h242V334.5z"/>
	</g>
</g>
<g>
	<g>
		<path d="M277.499,65h-11.893l2.196-2.196c2.929-2.93,2.929-7.678,0-10.607c-2.929-2.928-7.678-2.928-10.606,0l-9.697,9.697
			l-9.697-9.697c-2.929-2.928-7.678-2.928-10.606,0c-2.929,2.93-2.929,7.678,0,10.607L229.392,65h-11.893
			c-4.142,0-7.5,3.357-7.5,7.5v60c0,4.143,3.358,7.5,7.5,7.5h60c4.142,0,7.5-3.357,7.5-7.5v-60
			C284.999,68.357,281.641,65,277.499,65z M239.999,125h-15V80h15V125z M269.999,125h-15V80h15V125z"/>
	</g>
</g>
<g>
	<g>
		<path d="M217.499,200c20.678,0,37.5-16.822,37.5-37.5c0-4.143-3.358-7.5-7.5-7.5c-4.142,0-7.5,3.357-7.5,7.5
			c0,12.406-10.093,22.5-22.5,22.5h-53.548c-3.274-11.528-13.889-20-26.452-20h-50c-12.703,0-23.418,8.661-26.562,20.385
			C32.312,188.654,9.999,213.014,9.999,242.5c0,19.57,10.128,37.804,26.318,48.302c-2.457,5.917-4.242,12.148-5.273,18.605
			l-20.48,128.311c-0.448,2.808,0.729,5.627,3.041,7.281c6.398,4.58,13.934,7.001,21.794,7.001c9.763,0,18.85-3.68,25.7-10.158
			C67.95,448.32,77.036,452,86.799,452c9.764,0,18.85-3.679,25.7-10.158c6.85,6.479,15.937,10.158,25.7,10.158
			s18.849-3.68,25.7-10.158c6.851,6.478,15.937,10.158,25.7,10.158c3.996,0,7.909-0.626,11.631-1.843L208.707,497H16.291
			l4.096-25.659c0.653-4.091-2.134-7.936-6.224-8.589c-4.087-0.653-7.936,2.133-8.588,6.224l-5.481,34.343
			c-0.346,2.168,0.275,4.379,1.7,6.049C3.218,511.038,5.303,512,7.499,512h210c2.196,0,4.281-0.962,5.706-2.633
			c1.425-1.67,2.046-3.881,1.7-6.05l-10.446-65.447c-0.015-0.104-0.032-0.211-0.051-0.315l-20.454-128.147
			c-3.177-19.9-13.409-37.703-28.955-50.523V200H217.499z M74.999,192.5c0-6.893,5.608-12.5,12.5-12.5h50
			c6.893,0,12.5,5.607,12.5,12.5v5.906c-4.631-2.202-9.743-3.406-15.004-3.406c-8.309,0-16.262,2.97-22.5,8.203
			c-6.238-5.233-14.191-8.203-22.5-8.203c-5.258,0-10.367,1.203-14.996,3.402V192.5z M74.999,216.786
			c3.779-4.281,9.237-6.786,14.996-6.786c6.498,0,12.616,3.183,16.366,8.513c1.405,1.997,3.693,3.185,6.134,3.185
			c2.441,0,4.729-1.188,6.134-3.185c3.75-5.33,9.869-8.513,16.366-8.513c5.764,0,11.226,2.509,15.004,6.795V255h-75V216.786z
			 M24.999,242.5c0-20.875,15.132-38.27,35-41.824v13.315c-0.002,0.063,0,0.125,0,0.188v44.705
			c-6.527,5.383-12.103,11.652-16.628,18.578C32.042,269.602,24.999,256.52,24.999,242.5z M179.142,311.772l19.673,123.25
			c-2.879,1.302-6.003,1.978-9.216,1.978c-7.954,0-15.161-4.073-19.279-10.896c-1.358-2.249-3.793-3.624-6.421-3.624
			s-5.063,1.375-6.421,3.624C153.36,432.927,146.153,437,138.199,437s-15.161-4.073-19.279-10.896
			c-1.357-2.249-3.793-3.624-6.421-3.624s-5.063,1.375-6.421,3.624C101.96,432.927,94.753,437,86.799,437
			c-7.954,0-15.161-4.073-19.279-10.896c-1.358-2.249-3.793-3.624-6.421-3.624c-2.628,0-5.063,1.375-6.421,3.624
			C50.56,432.927,43.353,437,35.399,437c-3.213,0-6.336-0.676-9.215-1.978l19.673-123.25c1.149-7.198,3.444-14.054,6.731-20.378
			c0.091-0.161,0.193-0.313,0.274-0.483c0.045-0.095,0.079-0.193,0.12-0.289c4.22-7.869,10.021-14.872,17.145-20.622h84.745
			C167.913,280.526,176.507,295.263,179.142,311.772z"/>
	</g>
</g>
<g>
	<g>
		<path d="M134.83,50.001c4.762-5.312,7.665-12.323,7.665-20.001c0-16.542-13.458-30-30-30c-16.542,0-30,13.458-30,30
			c0,7.678,2.903,14.689,7.665,20.001C72.351,58.41,59.995,76.536,59.995,97.5c0,28.948,23.551,52.5,52.5,52.5
			c28.949,0,52.5-23.552,52.5-52.5C164.995,76.536,152.639,58.41,134.83,50.001z M112.495,15c8.271,0,15,6.729,15,15
			s-6.729,15-15,15s-15-6.728-15-15C97.495,21.729,104.224,15,112.495,15z M112.495,60c17.96,0,33.005,12.694,36.65,29.58
			c-20.154-2-38.58-11.212-52.297-26.147C101.614,61.235,106.912,60,112.495,60z M112.495,135c-20.678,0-37.5-16.822-37.5-37.5
			c0-9.663,3.675-18.483,9.699-25.139c16.691,18.803,39.576,30.244,64.607,32.299C145.949,121.924,130.724,135,112.495,135z"/>
	</g>
</g>
<g>
</g>
<g>
</g>
<g>
</g>
<g>
</g>
<g>
</g>
<g>
</g>
<g>
</g>
<g>
</g>
<g>
</g>
<g>
</g>
<g>
</g>
<g>
</g>
<g>
</g>
<g>
</g>
<g>
</g>
</svg>
