<?xml version="1.0" encoding="iso-8859-1"?>
<!-- Generator: Adobe Illustrator 19.0.0, SVG Export Plug-In . SVG Version: 6.00 Build 0)  -->
<svg version="1.1" id="Capa_1" xmlns="http://www.w3.org/2000/svg" xmlns:xlink="http://www.w3.org/1999/xlink" x="0px" y="0px"
	 viewBox="0 0 512.003 512.003" style="enable-background:new 0 0 512.003 512.003;" xml:space="preserve">
<g>
	<g>
		<path d="M438.271,167.944c-2.206-2.549-5.357-4.012-8.648-4.012H346.65v-10.985c15.675-2.584,29.019-11.258,36.776-24.32
			c9.178-15.453,9.113-34.85-0.173-51.887L344.25,5.173C342.511,1.981,339.169,0,335.543,0c-0.044,0-0.087,0-0.13,0.001
			c-3.677,0.048-7.025,2.127-8.702,5.399l-36.623,71.568c-8.971,17.533-8.726,37.159,0.656,52.499
			c7.82,12.787,20.661,21.041,36.069,23.511v10.955H243.72c-8.455,0-12.24,8.718-12.24,17.358v130.416
			c0,5.148,1.494,9.19,4.441,12.012c4.061,3.889,8.9,3.679,10.72,3.604l52.757-0.009c2.237,0,9.669-0.848,11.385-11.771
			c0.45-2.869,0.546-6.05,0.546-8.213v-43.037h25.417l-64.432,230.297v1.361c0,14.889,8.775,16.046,11.465,16.046h89.086
			c4.874,0,10.791-3.416,11.699-12.987l56.831-311.566l0.058-0.351C442.748,178.182,441.707,171.917,438.271,167.944z
			 M307.667,119.116c-5.834-9.54-5.805-21.609,0.081-33.111l28.071-54.853l30.018,55.08c5.99,10.991,6.184,22.751,0.535,32.265
			c-4.266,7.182-11.206,12.11-19.72,14.241v-9.517c0-5.477-4.442-9.919-9.919-9.919c-5.478,0-9.919,4.442-9.919,9.919v9.508
			C318.58,130.655,311.846,125.95,307.667,119.116z M421.843,184.072l-56.195,308.091h-72.057l69.302-247.705H291.49v62.874
			c0,0.05,0,0.099,0,0.147h-40.172V183.769h170.567C421.872,183.869,421.858,183.97,421.843,184.072z"/>
	</g>
</g>
<g>
	<g>
		<path d="M229.801,413.825h-24.262v-31.182c0-5.477-4.442-9.919-9.919-9.919c-5.477,0-9.919,4.442-9.919,9.919v41.101
			c0,5.478,4.442,9.919,9.919,9.919h26.118v58.502H90.005v-58.502h37.119V277.719H89.851v-55.438h43.749
			c14.67,0,19.546-19.382,24.085-38.512h28.016v120.548c0,5.477,4.442,9.919,9.919,9.919s9.919-4.442,9.919-9.919V178.227
			c0-8.283-5.082-14.295-12.085-14.295h-27.741v-10.985c15.675-2.584,29.019-11.258,36.776-24.32
			c9.178-15.453,9.113-34.85-0.173-51.887L163.314,5.173C161.575,1.981,158.232,0,154.605,0c-0.044,0-0.087,0-0.13,0.001
			c-3.677,0.048-7.025,2.127-8.702,5.399l-36.622,71.568c-8.971,17.533-8.727,37.158,0.655,52.498
			c7.821,12.788,20.662,21.042,36.07,23.512v12.45c-3.007,1.812-5.328,5.205-6.551,9.821l-0.673,2.818
			c-1.449,6.113-4.671,19.705-7.511,24.379h-49.66c-5.231,0-11.466,3.163-11.466,18.234v62.583c0,8.149,5.528,14.295,12.857,14.295
			h24.417v116.269H82.098c-6.689,0-11.929,6.279-11.929,14.296v67.834c0,11.831,5.923,16.046,11.466,16.046h148.167
			c1.205,0,11.774-0.401,11.774-14.296V428.56C241.575,419.883,236.733,413.825,229.801,413.825z M126.73,119.115
			c-5.835-9.539-5.804-21.608,0.081-33.11l28.07-54.853l30.019,55.08c5.99,10.991,6.184,22.751,0.535,32.265
			c-4.266,7.182-11.206,12.11-19.72,14.241v-9.517c0-5.477-4.442-9.919-9.919-9.919s-9.919,4.442-9.919,9.919v9.508
			C137.642,130.654,130.91,125.949,126.73,119.115z"/>
	</g>
</g>
<g>
	<g>
		<path d="M195.62,343.406c-5.477,0-9.919,4.44-9.919,9.919v0.471c0,5.477,4.442,9.919,9.919,9.919c5.477,0,9.919-4.442,9.919-9.919
			v-0.471C205.539,347.846,201.097,343.406,195.62,343.406z"/>
	</g>
</g>
<g>
</g>
<g>
</g>
<g>
</g>
<g>
</g>
<g>
</g>
<g>
</g>
<g>
</g>
<g>
</g>
<g>
</g>
<g>
</g>
<g>
</g>
<g>
</g>
<g>
</g>
<g>
</g>
<g>
</g>
</svg>
