<svg width="214" height="41" viewBox="0 0 214 41" fill="none" xmlns="http://www.w3.org/2000/svg">
<g clip-path="url(#clip0)">
<path d="M11.5685 1.73464C10.5255 2.05435 9.50731 2.45284 8.5224 2.92681C7.54272 2.45751 6.52939 2.06505 5.49121 1.75284C6.54245 1.4502 7.56806 1.06167 8.55809 0.591003C9.52978 1.0541 10.5365 1.43655 11.5685 1.73464Z" fill="#B38142"/>
<path d="M8.52243 3.01479L8.48376 2.99659C7.5083 2.5336 6.5 2.14624 5.46745 1.83778L5.16998 1.74981L5.46745 1.66487C6.5142 1.36201 7.53494 0.972424 8.51946 0.5L8.57895 0.5H8.5968C9.56687 0.963673 10.5715 1.34811 11.6012 1.6497L11.8987 1.73464L11.6012 1.82262C10.5594 2.13541 9.54212 2.52784 8.55813 2.99659L8.52243 3.01479ZM5.80656 1.75284C6.73425 2.04402 7.64161 2.39873 8.52243 2.81458C9.4089 2.39092 10.3234 2.03107 11.2591 1.73768C10.3356 1.4545 9.43302 1.10476 8.55813 0.691112C7.66755 1.11297 6.74791 1.46783 5.80656 1.75284Z" fill="#B38142"/>
<path d="M10.923 5.57811C10.682 5.66912 10.444 5.76619 10.209 5.88146C9.64384 6.12718 9.09353 6.39716 8.55809 6.69748C8.0277 6.40003 7.48261 6.1307 6.925 5.89057C6.68405 5.78439 6.44012 5.68429 6.1962 5.58721C5.75893 5.42037 5.3038 5.28386 4.86653 5.13825C4.01832 4.88831 3.15337 4.70176 2.27856 4.58008V2.27158L2.70692 2.32011C4.25333 2.56254 5.76741 2.98494 7.21949 3.57902C7.67461 3.76407 8.11189 3.96731 8.55511 4.18573C9.37436 4.59471 10.1655 5.05991 10.923 5.57811Z" fill="#B38142"/>
<path d="M8.5581 6.78544L8.51645 6.76118C7.99588 6.45782 7.44854 6.19998 6.88931 5.95729C6.65133 5.85415 6.40741 5.75405 6.16349 5.65394C5.72919 5.4871 5.27109 5.35059 4.84274 5.20498C3.99832 4.95743 3.13736 4.77291 2.26667 4.65288H2.18933V2.16843H2.29047L2.7218 2.23213C4.27591 2.47781 5.79707 2.90532 7.25519 3.50621C7.70139 3.68822 8.14759 3.8945 8.59974 4.11291C9.42239 4.52044 10.2174 4.98357 10.9795 5.49923L11.1252 5.5963L10.9616 5.66001C10.7207 5.75101 10.4827 5.84809 10.2537 5.94819C9.69283 6.18877 9.14474 6.45912 8.61164 6.75814L8.5581 6.78544ZM2.37971 4.4921C3.22848 4.61732 4.06747 4.80385 4.89033 5.05027C5.33653 5.18071 5.78273 5.33239 6.22596 5.50227C6.47285 5.59327 6.71975 5.69641 6.9607 5.80562C7.50804 6.04223 8.04645 6.30918 8.5581 6.59433C9.07569 6.30615 9.62005 6.0392 10.1733 5.79955C10.3548 5.72068 10.5392 5.64484 10.7296 5.569C10.0185 5.09867 9.2805 4.6722 8.51942 4.29189C8.07917 4.07348 7.62702 3.87023 7.18677 3.68519C5.74298 3.0902 4.2368 2.66676 2.698 2.42324L2.37971 2.37471V4.4921Z" fill="#B38142"/>
<path d="M16.3309 17.9306C15.7514 19.2438 14.8599 20.3889 13.7372 21.2623C12.6144 22.1357 11.2958 22.7098 9.9007 22.9327C8.5056 23.1555 7.07801 23.0201 5.74714 22.5387C4.41627 22.0572 3.22413 21.245 2.27859 20.1754C1.30206 19.0691 0.619966 17.726 0.29746 16.2743C0.160007 15.65 0.0901797 15.0122 0.0892334 14.3723V5.65698C0.821381 5.65886 1.55266 5.70851 2.27859 5.80562C2.76049 5.86933 3.23941 5.95427 3.70643 6.06044C4.17345 6.16661 4.59883 6.27885 5.04206 6.4184L5.1432 6.44873C5.92533 6.69523 6.68885 6.99939 7.42774 7.35879C7.81147 7.54687 8.19223 7.75315 8.56109 7.96549C11.2059 9.5314 13.3916 11.7907 14.8912 14.5088C15.4916 15.5927 15.9743 16.7401 16.3309 17.9306Z" fill="#B38142"/>
<path d="M8.58489 23.127C6.91903 23.1249 5.28962 22.6296 3.89451 21.7012C2.4994 20.7728 1.39861 19.4513 0.725819 17.8972C0.501017 17.3814 0.327615 16.8437 0.208227 16.2925C0.0701383 15.6621 0.000311348 15.0182 0 14.3723L0 5.57507H0.08924C0.825322 5.5775 1.56053 5.62714 2.29049 5.72372C2.76942 5.78742 3.25429 5.87539 3.72428 5.98157C4.19428 6.08774 4.63156 6.20301 5.06883 6.33952L5.167 6.36986C5.95433 6.62257 6.72279 6.93279 7.46642 7.29811C7.85312 7.48923 8.23685 7.6955 8.60571 7.90482C11.2608 9.4711 13.4574 11.7321 14.9685 14.4542C15.571 15.5446 16.0566 16.6979 16.4172 17.8942V17.9276V17.9579C15.737 19.4939 14.637 20.7973 13.2489 21.712C11.8608 22.6266 10.2435 23.1137 8.59084 23.1149L8.58489 23.127ZM0.17848 5.74798V14.3723C0.17811 15.0049 0.245943 15.6356 0.380757 16.2531C0.499937 16.7928 0.671324 17.3192 0.8924 17.8244C1.54654 19.338 2.61594 20.6264 3.97173 21.5343C5.32752 22.4422 6.91184 22.9308 8.53377 22.9414C10.1557 22.952 11.746 22.484 13.1131 21.5939C14.4802 20.7038 15.5656 19.4295 16.2387 17.9245C15.883 16.7515 15.4054 15.6207 14.8138 14.5513C13.3206 11.8529 11.1462 9.61137 8.51647 8.05953C8.15059 7.84415 7.77281 7.6409 7.38907 7.45282C6.65431 7.09334 5.89473 6.78917 5.11643 6.54277L5.01826 6.51243C4.58396 6.37592 4.12586 6.25458 3.68859 6.15448C3.25131 6.05437 2.74264 5.96033 2.2667 5.89663C1.5743 5.80314 0.876895 5.7535 0.17848 5.74798Z" fill="#B38142"/>
<path d="M14.8912 2.26248V4.56492C13.9857 4.68549 13.0906 4.87718 12.214 5.13826C11.4622 4.58196 10.6763 4.07533 9.86102 3.6215C11.3215 3.00952 12.8469 2.5728 14.4063 2.32012L14.8912 2.26248Z" fill="#B38142"/>
<path d="M12.1961 5.23836L12.1604 5.21105C11.4115 4.65507 10.6286 4.14846 9.81638 3.69429L9.65277 3.60329L9.81638 3.53352C11.2881 2.92378 12.8244 2.49111 14.3944 2.24427C14.558 2.21697 14.7186 2.1927 14.8793 2.1745H14.9804V4.65592H14.9031C13.9977 4.77743 13.1027 4.9691 12.2259 5.22925L12.1961 5.23836ZM10.0662 3.61846C10.8148 4.05244 11.5378 4.53052 12.2318 5.05028C13.0748 4.80432 13.9336 4.61882 14.8019 4.49514V2.37168L14.4241 2.42932H14.4063C12.9213 2.66234 11.4658 3.06111 10.0662 3.61846Z" fill="#B38142"/>
<path d="M17.0805 5.65698V14.3723C17.0814 15.0413 17.0055 15.7082 16.8545 16.3592C16.3474 15.0129 15.6885 13.7312 14.8912 12.54C13.5109 10.486 11.7433 8.7329 9.69147 7.38306C10.4395 7.01517 11.213 6.7039 12.0058 6.45177L12.0772 6.43053C12.5025 6.29706 12.9339 6.17875 13.3741 6.08168C13.8709 5.96943 14.3766 5.87843 14.8912 5.81169C15.617 5.71246 16.3483 5.66078 17.0805 5.65698Z" fill="#B38142"/>
<path d="M16.8753 16.6656L16.7712 16.3926C16.2681 15.0519 15.6121 13.7761 14.8168 12.5916C13.4489 10.5363 11.6898 8.78258 9.64386 7.43463L9.51892 7.35879L9.6617 7.28902C10.4132 6.91904 11.1908 6.60673 11.9879 6.35469L12.0593 6.33043C12.4876 6.19695 12.9279 6.07864 13.3622 5.98157C13.8649 5.8663 14.3766 5.77529 14.8882 5.70855C15.6183 5.61377 16.3535 5.56615 17.0895 5.56598H17.1787V14.3632C17.1813 15.0422 17.1064 15.7191 16.9556 16.3805L16.8753 16.6656ZM9.87291 7.38306C11.8813 8.72811 13.6107 10.4628 14.9626 12.4885C15.7095 13.6022 16.3359 14.7953 16.8307 16.0468C16.9378 15.4953 16.9916 14.9345 16.9913 14.3723V5.74799C16.2951 5.75182 15.5997 5.79842 14.909 5.88753C14.4033 5.95427 13.8947 6.04527 13.3979 6.15752C12.9666 6.25459 12.5323 6.36986 12.1069 6.50334L12.0385 6.5276C11.2981 6.76149 10.5746 7.04733 9.87291 7.38306Z" fill="#B38142"/>
<path d="M9.20958 23.036H7.9632V40.5H9.20958V23.036Z" fill="#B38142"/>
<path d="M15.6497 25.927H16.3607V26.6641C16.3607 28.0841 15.8075 29.446 14.8229 30.4501C13.8383 31.4542 12.5028 32.0183 11.1104 32.0183H10.4113V31.2811C10.4113 29.8632 10.9628 28.5032 11.9449 27.4995C12.9269 26.4957 14.2593 25.9302 15.6497 25.927Z" fill="#B38142"/>
<path d="M6.99048 35.0639H6.26763C5.57816 35.0639 4.89543 34.9254 4.25844 34.6564C3.62144 34.3873 3.04265 33.9929 2.55512 33.4957C2.06758 32.9986 1.68085 32.4083 1.417 31.7587C1.15315 31.1091 1.01734 30.4129 1.01734 29.7098V28.9726H1.73721C2.42719 28.9722 3.11048 29.1105 3.74801 29.3796C4.38555 29.6487 4.96482 30.0433 5.4527 30.5408C5.94059 31.0384 6.32753 31.6291 6.59139 32.2792C6.85526 32.9294 6.99087 33.6262 6.99048 34.3298V35.0639Z" fill="#B38142"/>
<path d="M40.2027 11.4814C36.0768 11.4814 33.6584 14.7515 33.6584 18.4008C33.6584 22.0501 36.0857 25.0442 40.2027 25.0442C44.3196 25.0442 46.7469 22.0683 46.7469 18.4008C46.7469 14.7333 44.3226 11.4814 40.2027 11.4814ZM40.2027 23.9461C38.1858 23.9461 36.7223 22.7661 36.7223 18.4008C36.7223 14.1539 38.1858 12.5734 40.2027 12.5734C42.2195 12.5734 43.683 14.1509 43.683 18.3978C43.683 22.7661 42.2195 23.9461 40.2027 23.9461Z" fill="#B38142"/>
<path d="M55.1682 11.6785H49.6502V24.841H55.1682C59.1781 24.841 61.5251 21.853 61.5251 18.24C61.5251 14.7576 59.1781 11.6785 55.1682 11.6785ZM54.9719 23.7428H52.5922V12.7767H54.9719C56.9679 12.7767 58.4552 14.1539 58.4552 18.237C58.4552 22.5689 56.9679 23.7428 54.9719 23.7428Z" fill="#B38142"/>
<path d="M70.4669 11.4814C66.3351 11.4814 63.9226 14.7515 63.9226 18.4008C63.9226 22.0501 66.344 25.0442 70.4669 25.0442C74.5898 25.0442 77.0112 22.0683 77.0112 18.4008C77.0112 14.7333 74.5927 11.4814 70.4669 11.4814ZM70.4669 23.9461C68.4501 23.9461 66.9835 22.7661 66.9835 18.4008C66.9835 14.1539 68.4501 12.5734 70.4669 12.5734C72.4837 12.5734 73.9472 14.1509 73.9472 18.3978C73.9472 22.7661 72.4778 23.9461 70.4669 23.9461Z" fill="#B38142"/>
<path d="M86.9347 18.8801H86.896C88.9426 18.3219 90.1325 16.8628 90.1325 15.252C90.1325 12.895 88.1751 11.6785 84.9863 11.6785H79.9145V24.841H82.8654V12.7767H84.9982C86.1524 12.7767 87.0805 13.3166 87.0805 15.3673C87.0805 17.3451 85.9263 18.0186 84.9506 18.0186H83.2134L83.969 19.1167L85.1588 20.8307L87.9253 24.841H91.3491L86.9347 18.8801Z" fill="#B38142"/>
<path d="M99.0089 11.4814C94.8771 11.4814 92.4646 14.7515 92.4646 18.4008C92.4646 22.0501 94.886 25.0442 99.0089 25.0442C103.132 25.0442 105.553 22.0683 105.553 18.4008C105.553 14.7333 103.135 11.4814 99.0089 11.4814ZM99.0089 23.9461C96.992 23.9461 95.5226 22.7661 95.5226 18.4008C95.5226 14.1539 96.992 12.5734 99.0089 12.5734C101.026 12.5734 102.486 14.1509 102.486 18.3978C102.486 22.7661 101.02 23.9461 99.0089 23.9461Z" fill="#B38142"/>
<path d="M108.456 11.6785V24.841H111.407V11.6785H108.456ZM114.007 17.2632L119.466 11.6785H117.797L111.55 18.24L116.607 24.841H120.284L114.007 17.2632Z" fill="#B38142"/>
<path d="M122.988 11.6785V24.841H125.944V11.6785H122.988Z" fill="#B38142"/>
<path d="M143.082 12.7767V11.6785H135.118V24.841H138.072V19.0045H142.71V17.9124H138.072V12.7767H143.082Z" fill="#B38142"/>
<path d="M148.909 23.7428V11.6785H145.952V24.841H154.54V23.7428H148.909Z" fill="#B38142"/>
<path d="M161.84 11.4814C157.714 11.4814 155.278 14.7576 155.278 18.3978C155.278 22.038 157.705 25.0412 161.822 25.0412C165.939 25.0412 168.366 22.0653 168.366 18.3978C168.366 14.7303 165.966 11.4814 161.84 11.4814ZM161.84 23.9461C159.823 23.9461 158.356 22.766 158.356 18.4008C158.356 14.1539 159.823 12.5734 161.84 12.5734C163.857 12.5734 165.32 14.1509 165.32 18.3978C165.32 22.766 163.851 23.9461 161.84 23.9461Z" fill="#B38142"/>
<path d="M178.308 18.8801H178.272C180.324 18.3219 181.52 16.8628 181.52 15.2399C181.52 12.8828 179.56 11.6664 176.371 11.6664H171.287V24.841H174.244V12.7767H176.371C177.528 12.7767 178.453 13.3166 178.453 15.3673C178.453 17.3451 177.299 18.0186 176.323 18.0186H174.613L175.369 19.1167L176.558 20.8306L179.331 24.841H182.752L178.308 18.8801Z" fill="#B38142"/>
<path d="M185.408 11.6785V24.841H188.365V11.6785H185.408Z" fill="#B38142"/>
<path d="M196.626 16.8052C194.924 16.1257 194.359 15.4492 194.359 14.5513C194.359 13.3743 195.18 12.6159 196.605 12.6159C198.172 12.6159 199.463 13.3348 199.755 15.0882H200.734C200.436 12.9162 199.071 11.4814 196.489 11.4814C193.654 11.4814 191.875 13.2347 191.875 15.4492C191.875 17.6 193.026 18.601 195.412 19.6173C197.334 20.4363 198.25 20.7912 198.25 22.0441C198.25 23.2969 197.116 23.9006 195.846 23.9006C193.948 23.9006 192.678 23.0209 192.363 20.9247H191.384C191.539 23.5972 193.499 25.0382 196.144 25.0382C198.901 25.0382 200.936 23.5608 200.936 21.2068C200.942 19.1986 199.922 18.1217 196.626 16.8052Z" fill="#B38142"/>
<path d="M201.552 11.6785V12.7767H206.109V24.841H209.06V12.7767H213.659V11.6785H201.552Z" fill="#B38142"/>
</g>
<defs>
<clipPath id="clip0">
<rect width="213.659" height="40" fill="white" transform="translate(0 0.5)"/>
</clipPath>
</defs>
</svg>
